{"title":"Interrogation 2016 BRRip x264 AAC-SSN","uid":15872640,"size":1326855081,"categoryP":"video","categoryS":"movies","magnet":"?xt=urn:btih:5707fa1768ee25e15b099bb57b1a7028b59cbe33&amp;dn=Interrogation+2016+BRRip+x264+AAC-SSN&amp;tr=udp%3A%2F%2Ftracker.leechers-paradise.org%3A6969&amp;tr=udp%3A%2F%2Fzer0day.ch%3A1337&amp;tr=udp%3A%2F%2Fopen.demonii.com%3A1337&amp;tr=udp%3A%2F%2Ftracker.coppersurfer.tk%3A6969&amp;tr=udp%3A%2F%2Fexodus.desync.com%3A6969","seeders":11,"leechers":2,"uploader":"somespirit","files":3,"time":1474455369,"description":"IMDB:  http://www.imdb.com/title/tt4497338/\r\n\r\n Source: Interrogation.2016.720p.BluRay.DTS.x264-iFT\r\n\r\n Language: English\r\n Subtitles: English\r\n\r\n\r\n General\r\n Complete name                            : Interrogation 2016 BRRip x264 AAC-SSN.mkv\r\n Format                                   : Matroska\r\n Format version                           : Version 4 / Version 2\r\n File size                                : 1.24 GiB\r\n Duration                                 : 1 h 26 min\r\n Overall bit rate                         : 2 054 kb/s\r\n Encoded date                             : UTC 2016-09-21 08:58:17\r\n Writing application                      : mkvmerge v9.4.2 ('So High') 64bit\r\n Writing library                          : libebml v1.3.4 + libmatroska v1.4.5\r\n\r\n Video\r\n ID                                       : 1\r\n Format                                   : AVC\r\n Format/Info                              : Advanced Video Codec\r\n Format profile                           :   \r\n Format settings, CABAC                   : Yes\r\n Format settings, ReFrames                : 5 frames\r\n Codec ID                                 : V_MPEG4/ISO/AVC\r\n Duration                                 : 1 h 26 min\r\n Bit rate                                 : 1 726 kb/s\r\n Width                                    : 900 pixels\r\n Height                                   : 506 pixels\r\n Display aspect ratio                     : 16:9\r\n Frame rate mode                          : Constant\r\n Frame rate                               : 23.976 (24000/1001) FPS\r\n Color space                              : YUV\r\n Chroma subsampling                       : 4:2:0\r\n Bit depth                                : 8 bits\r\n Scan type                                : Progressive\r\n Bits/(Pixel*Frame)                       : 0.190\r\n Stream size                              : 1.04 GiB (84%)\r\n Writing library                          : x264 core 148 r2705 3f5ed56\r\n Language                                 : English\r\n Default                                  : Yes\r\n Forced                                   : No\r\n\r\n Audio\r\n ID                                       : 2\r\n Format                                   : AAC\r\n Format/Info                              : Advanced Audio Codec\r\n Format profile                           : LC\r\n Codec ID                                 : A_AAC\r\n Duration                                 : 1 h 26 min\r\n Bit rate                                 : 331 kb/s\r\n Channel(s)                               : 6 channels\r\n Channel positions                        : Front: L C R, Side: L R, LFE\r\n Sampling rate                            : 32.0 kHz\r\n Frame rate                               : 31.250 FPS (1024 spf)\r\n Compression mode                         : Lossy\r\n Stream size                              : 204 MiB (16%)\r\n Language                                 : English\r\n Default                                  : Yes\r\n Forced                                   : No\r\n\r\n \nhttps://lookpic.com/O/i2/1718/83KJLCMm.png\r\n \nhttps://lookpic.com/O/i2/1099/lJ9uUksj.png\r\n \nhttps://lookpic.com/O/i2/308/ll8y5Yz8.png","torrent":{"xt":"urn:btih:5707fa1768ee25e15b099bb57b1a7028b59cbe33","amp;dn":"Interrogation+2016+BRRip+x264+AAC-SSN","amp;tr":["udp%3A%2F%2Ftracker.leechers-paradise.org%3A6969","udp%3A%2F%2Fzer0day.ch%3A1337","udp%3A%2F%2Fopen.demonii.com%3A1337","udp%3A%2F%2Ftracker.coppersurfer.tk%3A6969","udp%3A%2F%2Fexodus.desync.com%3A6969"],"infoHash":"5707fa1768ee25e15b099bb57b1a7028b59cbe33","infoHashBuffer":{"type":"Buffer","data":[87,7,250,23,104,238,37,225,91,9,155,181,123,26,112,40,181,156,190,51]},"announce":[],"urlList":[]}}